<?xml version="1.0"?><svg enable-background="new 0 0 52 52" id="Layer_1" version="1.1" viewBox="0 0 52 52" xml:space="preserve" xmlns="http://www.w3.org/2000/svg" xmlns:xlink="http://www.w3.org/1999/xlink"><g><path d="M15.0026245,18.9976501v-3.7199097c0-6.2172852,4.9345703-11.2753906,11-11.2753906   c2.9238281,0,5.6850586,1.1699219,7.7700195,3.2900391c2.0830078,2.1435547,3.2299805,4.9794922,3.2299805,7.9853516h2   c0-3.5292969-1.3481445-6.8603516-3.7998047-9.3833008c-2.4682617-2.5097656-5.7358398-3.8920898-9.2001953-3.8920898   c-7.168457,0-13,5.9550781-13,13.2753906v3.7199097H7v31h38v-31H15.0026245z M29.2000122,36.2676086v5.4500122h-6.4000244   v-5.4500122c-1.3599854-1.0100098-2.1900024-2.6199951-2.1900024-4.3499756c0-2.9700317,2.4200439-5.3900146,5.3900146-5.3900146   c2.9799805,0,5.4000244,2.4199829,5.4000244,5.3900146C31.4000244,33.6476135,30.5700073,35.2575989,29.2000122,36.2676086z" fill="#F93E2B"/></g></svg>
